<svg width="14" height="4" viewBox="0 0 14 4" fill="none" xmlns="http://www.w3.org/2000/svg">
<path d="M11.5 0.25C10.535 0.25 9.75 1.037 9.75 2C9.75 2.963 10.534 3.75 11.5 3.75C12.464 3.75 13.25 2.964 13.25 2C13.25 1.036 12.464 0.25 11.5 0.25ZM7 0.25C6.034 0.25 5.25 1.037 5.25 2C5.25 2.963 6.035 3.75 7 3.75C7.965 3.75 8.75 2.964 8.75 2C8.75 1.036 7.966 0.25 7 0.25ZM2.5 0.25C1.535 0.25 0.75 1.037 0.75 2C0.75 2.963 1.535 3.75 2.5 3.75C3.464 3.75 4.25 2.964 4.25 2C4.25 1.036 3.463 0.25 2.5 0.25Z" fill="white"/>
</svg>
